<mxfile host="app.diagrams.net" modified="2023-07-29T17:42:35.546Z" agent="Mozilla/5.0 (Windows NT 10.0; Win64; x64) AppleWebKit/537.36 (KHTML, like Gecko) Chrome/115.0.0.0 Safari/537.36 Edg/115.0.1901.188" etag="VUI78EH4bIZaU4Fa7CL8" version="21.6.6" type="github">
  <diagram name="Page-1" id="D4HPjwK6Z6pOfNiRpgGx">
    <mxGraphModel dx="2250" dy="721" grid="1" gridSize="10" guides="1" tooltips="1" connect="1" arrows="1" fold="1" page="1" pageScale="1" pageWidth="850" pageHeight="1100" math="0" shadow="0">
      <root>
        <mxCell id="0" />
        <mxCell id="1" parent="0" />
        <mxCell id="G92ffWmSQtBxgx5c2bBt-2" value="" style="sketch=0;pointerEvents=1;shadow=0;dashed=0;html=1;strokeColor=none;fillColor=#505050;labelPosition=center;verticalLabelPosition=bottom;verticalAlign=top;outlineConnect=0;align=center;shape=mxgraph.office.communications.smtp_connector;" parent="1" vertex="1">
          <mxGeometry x="30" y="450" width="127" height="140" as="geometry" />
        </mxCell>
        <mxCell id="G92ffWmSQtBxgx5c2bBt-7" value="" style="rounded=1;whiteSpace=wrap;html=1;verticalAlign=top;fillColor=#505050;strokeColor=none;sketch=0;shadow=0;dashed=0;" parent="1" vertex="1">
          <mxGeometry x="449.75" y="390" width="330" height="270" as="geometry" />
        </mxCell>
        <mxCell id="G92ffWmSQtBxgx5c2bBt-10" value="" style="sketch=0;shadow=0;dashed=0;html=1;strokeColor=none;labelPosition=center;verticalLabelPosition=bottom;verticalAlign=top;outlineConnect=0;align=center;shape=mxgraph.office.databases.database_mini_2;fillColor=#33FF33;" parent="1" vertex="1">
          <mxGeometry x="660" y="560" width="49" height="80" as="geometry" />
        </mxCell>
        <mxCell id="G92ffWmSQtBxgx5c2bBt-13" value="" style="sketch=0;pointerEvents=1;shadow=0;dashed=0;html=1;strokeColor=none;fillColor=#33FF33;labelPosition=center;verticalLabelPosition=bottom;verticalAlign=top;outlineConnect=0;align=center;shape=mxgraph.office.concepts.folder_open;" parent="1" vertex="1">
          <mxGeometry x="480" y="560" width="79.5" height="60" as="geometry" />
        </mxCell>
        <mxCell id="G92ffWmSQtBxgx5c2bBt-15" value="" style="sketch=0;pointerEvents=1;shadow=0;dashed=0;html=1;strokeColor=none;fillColor=#33FF33;labelPosition=center;verticalLabelPosition=bottom;verticalAlign=top;outlineConnect=0;align=center;shape=mxgraph.office.servers.application_server_orange;" parent="1" vertex="1">
          <mxGeometry x="660" y="410" width="56" height="80" as="geometry" />
        </mxCell>
        <mxCell id="G92ffWmSQtBxgx5c2bBt-16" value="" style="sketch=0;pointerEvents=1;shadow=0;dashed=0;html=1;strokeColor=none;labelPosition=center;verticalLabelPosition=bottom;verticalAlign=top;outlineConnect=0;align=center;shape=mxgraph.office.servers.virtual_web_server;fillColor=#33FF33;" parent="1" vertex="1">
          <mxGeometry x="488.88" y="410" width="61.75" height="90" as="geometry" />
        </mxCell>
        <mxCell id="G92ffWmSQtBxgx5c2bBt-21" value="" style="endArrow=none;html=1;rounded=0;" parent="1" edge="1">
          <mxGeometry width="50" height="50" relative="1" as="geometry">
            <mxPoint x="90" y="450" as="sourcePoint" />
            <mxPoint x="90" y="280" as="targetPoint" />
          </mxGeometry>
        </mxCell>
        <mxCell id="G92ffWmSQtBxgx5c2bBt-23" value="" style="endArrow=classic;html=1;rounded=0;" parent="1" edge="1">
          <mxGeometry width="50" height="50" relative="1" as="geometry">
            <mxPoint x="90" y="280" as="sourcePoint" />
            <mxPoint x="300" y="280" as="targetPoint" />
          </mxGeometry>
        </mxCell>
        <mxCell id="G92ffWmSQtBxgx5c2bBt-24" value="" style="sketch=0;pointerEvents=1;shadow=0;dashed=0;html=1;strokeColor=none;fillColor=#505050;labelPosition=center;verticalLabelPosition=bottom;outlineConnect=0;verticalAlign=top;align=center;shape=mxgraph.office.clouds.cloud;" parent="1" vertex="1">
          <mxGeometry x="300" y="240" width="130" height="60" as="geometry" />
        </mxCell>
        <mxCell id="G92ffWmSQtBxgx5c2bBt-25" value="" style="endArrow=classic;html=1;rounded=0;" parent="1" edge="1">
          <mxGeometry width="50" height="50" relative="1" as="geometry">
            <mxPoint x="430" y="280" as="sourcePoint" />
            <mxPoint x="600" y="280" as="targetPoint" />
          </mxGeometry>
        </mxCell>
        <mxCell id="G92ffWmSQtBxgx5c2bBt-26" value="" style="endArrow=classic;html=1;rounded=0;entryX=0.456;entryY=-0.001;entryDx=0;entryDy=0;entryPerimeter=0;" parent="1" target="G92ffWmSQtBxgx5c2bBt-7" edge="1">
          <mxGeometry width="50" height="50" relative="1" as="geometry">
            <mxPoint x="600" y="280" as="sourcePoint" />
            <mxPoint x="620" y="370" as="targetPoint" />
          </mxGeometry>
        </mxCell>
        <mxCell id="G92ffWmSQtBxgx5c2bBt-27" value="" style="endArrow=classic;html=1;rounded=0;" parent="1" edge="1">
          <mxGeometry width="50" height="50" relative="1" as="geometry">
            <mxPoint x="600" y="660" as="sourcePoint" />
            <mxPoint x="600" y="720" as="targetPoint" />
          </mxGeometry>
        </mxCell>
        <mxCell id="G92ffWmSQtBxgx5c2bBt-28" value="" style="endArrow=classic;html=1;rounded=0;" parent="1" source="G92ffWmSQtBxgx5c2bBt-55" edge="1">
          <mxGeometry width="50" height="50" relative="1" as="geometry">
            <mxPoint x="600" y="720" as="sourcePoint" />
            <mxPoint x="90" y="720" as="targetPoint" />
          </mxGeometry>
        </mxCell>
        <mxCell id="G92ffWmSQtBxgx5c2bBt-29" value="" style="endArrow=classic;html=1;rounded=0;" parent="1" target="G92ffWmSQtBxgx5c2bBt-2" edge="1">
          <mxGeometry width="50" height="50" relative="1" as="geometry">
            <mxPoint x="94" y="720" as="sourcePoint" />
            <mxPoint x="160" y="670" as="targetPoint" />
          </mxGeometry>
        </mxCell>
        <mxCell id="G92ffWmSQtBxgx5c2bBt-44" value="&lt;b&gt;&lt;font style=&quot;font-size: 32px;&quot;&gt;Internet&lt;/font&gt;&lt;/b&gt;" style="text;strokeColor=none;align=center;fillColor=none;html=1;verticalAlign=middle;whiteSpace=wrap;rounded=0;" parent="1" vertex="1">
          <mxGeometry x="310" y="170" width="130" height="60" as="geometry" />
        </mxCell>
        <mxCell id="G92ffWmSQtBxgx5c2bBt-45" value="&lt;font style=&quot;font-size: 27px;&quot;&gt;HTTP Request&lt;/font&gt;" style="text;strokeColor=none;align=center;fillColor=none;html=1;verticalAlign=middle;whiteSpace=wrap;rounded=0;" parent="1" vertex="1">
          <mxGeometry x="10" y="300" width="190" height="60" as="geometry" />
        </mxCell>
        <mxCell id="G92ffWmSQtBxgx5c2bBt-46" value="&lt;font style=&quot;font-size: 27px;&quot;&gt;HTTP Respond&lt;/font&gt;" style="text;strokeColor=none;align=center;fillColor=none;html=1;verticalAlign=middle;whiteSpace=wrap;rounded=0;" parent="1" vertex="1">
          <mxGeometry x="230" y="750" width="190" height="60" as="geometry" />
        </mxCell>
        <mxCell id="G92ffWmSQtBxgx5c2bBt-47" value="&lt;font style=&quot;font-size: 27px;&quot;&gt;Client&lt;/font&gt;" style="text;strokeColor=none;align=center;fillColor=none;html=1;verticalAlign=middle;whiteSpace=wrap;rounded=0;" parent="1" vertex="1">
          <mxGeometry x="-10" y="460" width="190" height="60" as="geometry" />
        </mxCell>
        <mxCell id="G92ffWmSQtBxgx5c2bBt-48" value="&lt;font style=&quot;font-size: 14px;&quot;&gt;Web Server&lt;/font&gt;" style="text;strokeColor=none;align=center;fillColor=none;html=1;verticalAlign=middle;whiteSpace=wrap;rounded=0;fontColor=#FFFFFF;" parent="1" vertex="1">
          <mxGeometry x="449.75" y="490" width="140" height="40" as="geometry" />
        </mxCell>
        <mxCell id="G92ffWmSQtBxgx5c2bBt-49" value="&lt;font style=&quot;font-size: 14px;&quot;&gt;Web Server&lt;/font&gt;" style="text;align=center;html=1;verticalAlign=middle;whiteSpace=wrap;rounded=0;fontColor=#FFFFFF;" parent="1" vertex="1">
          <mxGeometry x="610" y="490" width="140" height="40" as="geometry" />
        </mxCell>
        <mxCell id="G92ffWmSQtBxgx5c2bBt-50" value="&lt;font style=&quot;font-size: 14px;&quot;&gt;Code Base&lt;/font&gt;" style="text;strokeColor=none;align=center;fillColor=none;html=1;verticalAlign=middle;whiteSpace=wrap;rounded=0;fontColor=#FFFFFF;" parent="1" vertex="1">
          <mxGeometry x="460" y="620" width="140" height="40" as="geometry" />
        </mxCell>
        <mxCell id="G92ffWmSQtBxgx5c2bBt-51" value="&lt;font style=&quot;font-size: 14px;&quot;&gt;Database&lt;/font&gt;" style="text;strokeColor=none;align=center;fillColor=none;html=1;verticalAlign=middle;whiteSpace=wrap;rounded=0;fontColor=#FFFFFF;" parent="1" vertex="1">
          <mxGeometry x="625" y="630" width="140" height="40" as="geometry" />
        </mxCell>
        <mxCell id="G92ffWmSQtBxgx5c2bBt-52" value="&lt;font style=&quot;font-size: 19px;&quot;&gt;www.foobar.com&lt;/font&gt;" style="text;strokeColor=none;align=center;fillColor=none;html=1;verticalAlign=middle;whiteSpace=wrap;rounded=0;" parent="1" vertex="1">
          <mxGeometry x="-1.5" y="320" width="190" height="60" as="geometry" />
        </mxCell>
        <mxCell id="G92ffWmSQtBxgx5c2bBt-53" value="&lt;b&gt;&lt;font style=&quot;font-size: 32px;&quot;&gt;Server&lt;/font&gt;&lt;/b&gt;" style="text;strokeColor=none;align=center;fillColor=none;html=1;verticalAlign=middle;whiteSpace=wrap;rounded=0;" parent="1" vertex="1">
          <mxGeometry x="630" y="330" width="130" height="60" as="geometry" />
        </mxCell>
        <mxCell id="G92ffWmSQtBxgx5c2bBt-54" value="&lt;font style=&quot;font-size: 19px;&quot;&gt;8.8.8.8&lt;/font&gt;" style="text;strokeColor=none;align=center;fillColor=none;html=1;verticalAlign=middle;whiteSpace=wrap;rounded=0;fontColor=#FFFFFF;" parent="1" vertex="1">
          <mxGeometry x="470" y="380" width="190" height="60" as="geometry" />
        </mxCell>
        <mxCell id="G92ffWmSQtBxgx5c2bBt-56" value="" style="endArrow=classic;html=1;rounded=0;" parent="1" target="G92ffWmSQtBxgx5c2bBt-55" edge="1">
          <mxGeometry width="50" height="50" relative="1" as="geometry">
            <mxPoint x="600" y="720" as="sourcePoint" />
            <mxPoint x="90" y="720" as="targetPoint" />
          </mxGeometry>
        </mxCell>
        <mxCell id="G92ffWmSQtBxgx5c2bBt-55" value="" style="sketch=0;pointerEvents=1;shadow=0;dashed=0;html=1;strokeColor=none;fillColor=#505050;labelPosition=center;verticalLabelPosition=bottom;outlineConnect=0;verticalAlign=top;align=center;shape=mxgraph.office.clouds.cloud;" parent="1" vertex="1">
          <mxGeometry x="260" y="690" width="130" height="60" as="geometry" />
        </mxCell>
        <mxCell id="vzeCs0w02vctvdi1en25-1" value="" style="endArrow=classic;startArrow=classic;html=1;rounded=0;entryX=0.576;entryY=0.241;entryDx=0;entryDy=0;entryPerimeter=0;fontColor=#FFFFFF;" edge="1" parent="1" source="G92ffWmSQtBxgx5c2bBt-16" target="G92ffWmSQtBxgx5c2bBt-7">
          <mxGeometry width="50" height="50" relative="1" as="geometry">
            <mxPoint x="570" y="490" as="sourcePoint" />
            <mxPoint x="620" y="440" as="targetPoint" />
          </mxGeometry>
        </mxCell>
        <mxCell id="vzeCs0w02vctvdi1en25-2" value="" style="endArrow=classic;startArrow=classic;html=1;rounded=0;fontColor=#FFFFFF;" edge="1" parent="1" source="G92ffWmSQtBxgx5c2bBt-13" target="G92ffWmSQtBxgx5c2bBt-48">
          <mxGeometry width="50" height="50" relative="1" as="geometry">
            <mxPoint x="559.5" y="560" as="sourcePoint" />
            <mxPoint x="648.5" y="560" as="targetPoint" />
          </mxGeometry>
        </mxCell>
        <mxCell id="vzeCs0w02vctvdi1en25-5" value="" style="endArrow=classic;startArrow=classic;html=1;rounded=0;fontColor=#FFFFFF;exitX=0.408;exitY=0;exitDx=0;exitDy=0;exitPerimeter=0;" edge="1" parent="1" source="G92ffWmSQtBxgx5c2bBt-10">
          <mxGeometry width="50" height="50" relative="1" as="geometry">
            <mxPoint x="647" y="500" as="sourcePoint" />
            <mxPoint x="680" y="520" as="targetPoint" />
          </mxGeometry>
        </mxCell>
      </root>
    </mxGraphModel>
  </diagram>
</mxfile>
